#define gnus_width 264
#define gnus_height 272
static char gnus_bits[] = {
 0x00,0x00,0x00,0x00,0x00,0x00,0x00,0x00,0x00,0x00,0x00,0x00,0x00,0x00,0x00,
 0x00,0x00,0x00,0x00,0x00,0x00,0x00,0x00,0x00,0x00,0x00,0x00,0x00,0x00,0x00,
 0x00,0x00,0x00,0x00,0x00,0x00,0x00,0x00,0x00,0x00,0x00,0x00,0x00,0x00,0x00,
 0x00,0x00,0x00,0x00,0x00,0x00,0x00,0x00,0x00,0x00,0x00,0x00,0x00,0x00,0x00,
 0x00,0x00,0x50,0x00,0x00,0x00,0x00,0x00,0x00,0x00,0x00,0x00,0x00,0x00,0x00,
 0x00,0x00,0x00,0x00,0x00,0x00,0x00,0x00,0x00,0x00,0x00,0x00,0x00,0x00,0x00,
 0x00,0x00,0x00,0x00,0x00,0x6a,0xfb,0x01,0x00,0x00,0x00,0x00,0x00,0x00,0x00,
 0x00,0x00,0x00,0x00,0x00,0x00,0x00,0x00,0x00,0x00,0x00,0x00,0x00,0x00,0x00,
 0x00,0x00,0x00,0x00,0x00,0x00,0x00,0x80,0x56,0x55,0x07,0x00,0x00,0x00,0x00,
 0x00,0x00,0x00,0x00,0x00,0x00,0x00,0x00,0x00,0x00,0x00,0x00,0x00,0x00,0x00,
 0x00,0x00,0x00,0x00,0x00,0x00,0x00,0x00,0x00,0x00,0x80,0x5a,0xed,0x0b,0x00,
 0x00,0x00,0x00,0x00,0x00,0x00,0x00,0x00,0x00,0x00,0x00,0x00,0x00,0x00,0x00,
 0x00,0x00,0x00,0x00,0x00,0x00,0x00,0x00,0x00,0x00,0x00,0x00,0x00,0x60,0xd5,
 0x9a,0x1e,0x00,0x00,0x00,0x00,0x00,0x00,0x00,0x00,0x00,0x00,0x00,0x00,0x00,
 0x00,0x00,0x00,0x00,0x00,0x00,0x00,0x00,0x00,0x00,0x00,0x00,0x00,0x00,0x00,
 0x00,0x50,0x6b,0xab,0x6f,0x00,0x00,0x00,0x00,0x00,0x00,0x00,0x00,0x00,0x00,
 0x00,0x00,0x00,0x00,0x00,0x00,0x00,0x00,0x00,0x00,0x00,0x00,0x00,0x00,0x00,
 0x00,0x00,0x00,0x00,0xa8,0x56,0x75,0xba,0x00,0x00,0x00,0x00,0x00,0x00,0x00,
 0x00,0x00,0x00,0x00,0x00,0x00,0x00,0x00,0x00,0x00,0x00,0x00,0x00,0x00,0x00,
 0x00,0x00,0x00,0x00,0x00,0x00,0x00,0xa8,0xb5,0x9a,0xed,0x01,0x00,0x00,0x00,
 0x00,0x00,0x00,0x00,0x00,0x00,0x00,0x00,0x00,0x00,0x00,0x00,0x00,0x00,0x00,
 0x00,0x00,0x00,0x00,0x00,0x00,0x00,0x00,0x00,0x00,0xb4,0x6a,0x6b,0xbb,0x01,
 0x00,0x00,0x00,0x00,0x00,0x00,0x00,0x54,0x00,0x00,0x00,0x00,0x00,0x00,0x00,
 0x00,0x00,0x00,0x00,0x00,0x00,0x00,0x00,0x00,0x00,0x00,0x00,0x00,0x5a,0xad,
 0x55,0xed,0x02,0x00,0x00,0x00,0x00,0x00,0x00,0x00,0xad,0x02,0x00,0x00,0x00,
 0x00,0x00,0x00,0x00,0x00,0x00,0x00,0x00,0x00,0x00,0x00,0x00,0x00,0x00,0x00,
 0x00,0xd5,0xaa,0xb6,0xba,0x03,0x00,0x00,0x00,0x00,0x00,0x00,0x40,0xb5,0x1d,
 0x00,0x00,0x00,0x00,0x00,0x00,0x00,0x00,0x00,0x00,0x00,0x00,0x00,0x00,0x00,
 0x00,0x00,0x00,0x80,0x6a,0x6d,0xd5,0xe6,0x0e,0x00,0x00,0x00,0x00,0x00,0x00,
 0x80,0xaa,0x52,0x00,0x00,0x40,0x55,0x01,0x00,0x00,0x00,0x00,0x00,0x00,0x00,
 0x00,0x00,0x00,0x00,0x00,0x00,0x80,0x56,0xab,0x5a,0xed,0x0b,0x00,0x00,0x00,
 0x00,0x00,0x00,0xa0,0x6d,0xad,0x01,0x00,0xa0,0xb6,0x05,0x00,0x00,0x00,0x00,
 0x00,0x00,0x00,0x00,0x00,0x00,0x00,0x00,0x00,0x80,0xb5,0xb5,0xad,0xb5,0x0e,
 0x00,0x00,0x00,0x00,0x00,0x00,0x50,0xab,0xb5,0x02,0x00,0xdc,0x6a,0x15,0x00,
 0x00,0x00,0x00,0x00,0x00,0x00,0x00,0x00,0x00,0x00,0x00,0x00,0x60,0xad,0xaa,
 0xaa,0xea,0x1b,0x00,0x00,0x00,0x00,0x00,0x00,0x68,0xb5,0x5a,0x01,0x00,0x52,
 0xad,0xea,0x00,0x00,0x00,0x00,0x00,0x00,0x00,0x00,0x00,0x00,0x00,0x00,0x00,
 0xa0,0xaa,0x5a,0x6b,0xdb,0x1e,0x00,0x00,0x00,0x00,0x00,0x00,0xa8,0xaa,0xd5,
 0x06,0xc0,0xad,0x55,0x9b,0x02,0x00,0x00,0x00,0x00,0x00,0x00,0x00,0x00,0x00,
 0x00,0x00,0x00,0xa0,0xb5,0xb5,0x56,0xd5,0x2b,0x00,0x00,0x00,0x00,0x00,0x00,
 0x56,0x5b,0x6d,0x05,0x20,0xd5,0xb6,0x6d,0x05,0x00,0x00,0x00,0x00,0x00,0x00,
 0x00,0x00,0x00,0x00,0x00,0x00,0x50,0xad,0xd6,0xda,0x6a,0x3d,0x00,0x00,0x00,
 0x00,0x00,0x00,0xda,0x6a,0xab,0x1a,0xe0,0xb6,0xaa,0xaa,0x0a,0x00,0x00,0x00,
 0x00,0x00,0x00,0x00,0x00,0x00,0x00,0x00,0x00,0x68,0x6b,0xad,0xaa,0xad,0x37,
 0x00,0x00,0x00,0x00,0x00,0x00,0xab,0x56,0xd5,0x16,0xa8,0xaa,0x6a,0x55,0x0b,
 0x00,0x00,0x00,0x00,0x00,0x00,0x00,0x00,0x00,0x00,0x00,0x00,0x50,0xfd,0xaa,
 0x56,0xb5,0x1d,0x00,0x00,0x00,0x00,0x00,0x80,0x5a,0xad,0xb6,0x6a,0xa8,0xd6,
 0xd6,0xb6,0x36,0x00,0x00,0x00,0x00,0x00,0x00,0x00,0x00,0x00,0x00,0x00,0x00,
 0x6c,0xd4,0x69,0x6d,0xab,0x37,0x00,0x00,0x00,0x00,0x00,0x40,0x6b,0x6b,0xab,
 0x56,0xb4,0xb5,0x5a,0xd5,0x2a,0x00,0x00,0x00,0x00,0x00,0x00,0x00,0x00,0x00,
 0x00,0x00,0x00,0x54,0x7e,0x80,0x55,0xd5,0x3d,0x00,0x00,0x00,0x00,0x00,0xa0,
 0xaa,0xda,0x5a,0xad,0xa8,0xaa,0xb5,0xad,0xd5,0x00,0x00,0x00,0x00,0x00,0x00,
 0x00,0x00,0x00,0x00,0x00,0x00,0x54,0x2a,0x80,0xda,0xb6,0x16,0x00,0x00,0x00,
 0x00,0x00,0x50,0x5b,0xab,0x6a,0x6b,0xd7,0xb6,0x56,0xb5,0xb6,0x00,0x00,0x00,
 0x00,0x00,0x00,0x00,0x00,0x00,0x00,0x00,0x00,0x5a,0x3e,0x00,0xad,0xaa,0x3f,
 0x00,0x00,0x00,0x00,0x00,0xa0,0x6a,0x55,0xab,0x5a,0xad,0xaa,0xaa,0xaa,0xaa,
 0x01,0x00,0x00,0x00,0x00,0x00,0x00,0x00,0x00,0x00,0x00,0x00,0x15,0x2b,0x00,
 0x6a,0xad,0x35,0x00,0x00,0x00,0x00,0x00,0xb0,0xb5,0xda,0x5a,0xab,0x6a,0xb5,
 0xb5,0xad,0xb5,0x06,0x00,0x00,0x00,0x00,0x00,0x00,0x00,0x00,0x00,0x00,0x00,
 0x2d,0x1e,0x00,0xac,0xb6,0x3f,0x20,0x00,0x00,0x00,0x00,0x6c,0xab,0xb5,0x6a,
 0xb5,0xd5,0x56,0x6b,0x5b,0xab,0x0a,0x00,0x00,0x00,0x00,0x00,0x00,0x00,0x00,
 0x00,0x00,0x00,0xb5,0x1b,0x00,0x6a,0xd5,0x2a,0xa0,0x01,0x00,0x00,0x00,0xaa,
 0xda,0x56,0xad,0xd6,0x5a,0xdb,0x5a,0xd5,0x5a,0x0b,0x00,0x00,0x00,0x00,0x00,
 0x00,0x00,0x00,0x00,0x00,0x80,0x96,0x0e,0x00,0x54,0xab,0x3f,0x60,0x02,0x00,
 0x00,0x00,0xaa,0xd6,0xab,0xd5,0xaa,0x56,0x55,0x55,0xb5,0xb6,0x1a,0x00,0x00,
 0x00,0x00,0x00,0x00,0x00,0x00,0x00,0x00,0x80,0xca,0x1b,0x00,0xb4,0xda,0x2a,
 0xa8,0x0d,0x00,0x00,0x80,0xb5,0x75,0xdd,0xb6,0x5a,0xab,0x55,0xdb,0x56,0x55,
 0x6b,0x00,0x00,0x00,0x00,0x00,0x00,0x00,0x00,0x00,0x00,0x40,0xd5,0x1e,0x00,
 0xa8,0xd5,0x3f,0xa8,0x2a,0x00,0x00,0xa0,0x56,0xdd,0xb7,0xaa,0xb5,0x5a,0x6d,
 0x55,0xad,0xd5,0xaa,0x00,0x00,0x00,0x00,0x00,0x00,0x00,0x00,0x00,0x00,0x80,
 0x4d,0x0b,0x00,0x50,0x6b,0x2d,0xd0,0x16,0x00,0x00,0xa0,0xda,0xf6,0x7d,0xb5,
 0x56,0xad,0xb5,0xd6,0x6a,0x6d,0xb5,0x00,0x00,0x00,0x00,0x00,0x00,0x00,0x00,
 0x00,0x00,0x80,0xe6,0x0f,0x00,0xd8,0xda,0x3b,0xa0,0x6d,0x00,0x00,0x58,0xd5,
 0x5f,0xf7,0x6b,0x6d,0x6b,0xef,0x5b,0xab,0xaa,0xad,0x01,0x00,0x00,0x00,0x00,
 0x00,0x00,0x00,0x00,0x00,0x80,0x8a,0x0a,0x00,0xa0,0xd6,0x2e,0x60,0x55,0x00,
 0x00,0xa8,0x6d,0xf5,0x5d,0xad,0x55,0xd5,0xdb,0xb6,0xda,0xb6,0xaa,0x06,0x00,
 0x00,0x00,0x00,0x00,0x00,0x00,0x00,0x00,0x00,0xc5,0x07,0x00,0x60,0xd5,0x1b,
 0x50,0xb5,0x00,0x00,0xb5,0xea,0xdf,0xf7,0x57,0xb5,0xba,0x7e,0xdf,0x55,0x55,
 0xdb,0x02,0x00,0x00,0x00,0x00,0x00,0x00,0x00,0x00,0x00,0x01,0x83,0x02,0x00,
 0xd0,0xda,0x0e,0x50,0x5b,0x01,0x80,0xda,0x56,0x75,0xbd,0x6d,0xad,0xed,0xd7,
 0x77,0x6f,0xdb,0xaa,0x0a,0x00,0x00,0x00,0x00,0x04,0x00,0x00,0x00,0x00,0x02,
 0x81,0x01,0x00,0x50,0xad,0x1f,0xa0,0xaa,0x02,0xa0,0x55,0xfd,0x1f,0xf7,0x5e,
 0x6b,0xb7,0x7d,0xfd,0x55,0x55,0x6d,0x0b,0x00,0x00,0x00,0x00,0x04,0x00,0x00,
 0x00,0x80,0x01,0x00,0x01,0x00,0xa0,0xf5,0x1a,0xa0,0xad,0x01,0x50,0xad,0xd5,
 0x0a,0xa8,0xb7,0xaa,0x7c,0xdf,0x57,0xaf,0xaa,0x56,0x35,0x00,0x00,0x00,0x00,
 0x03,0x00,0x00,0x00,0x80,0x02,0x00,0x00,0x00,0xd8,0xaa,0x17,0x40,0xb5,0x16,
 0xae,0x5a,0x7d,0x03,0xf0,0xfe,0xd6,0xf6,0x75,0xff,0xbd,0xdd,0xaa,0x2d,0x00,
 0x00,0x00,0x00,0x01,0x00,0x00,0x00,0x60,0x01,0x00,0x00,0x00,0xb0,0xf6,0x1e,
 0xc0,0x56,0x55,0x69,0x6b,0xdb,0x00,0xa0,0xd7,0x6a,0x5f,0xdf,0x55,0xdb,0x66,
 0x6d,0xd5,0x00,0x00,0x00,0xc0,0x02,0x00,0x00,0x00,0x40,0x01,0x00,0x00,0x00,
 0xa8,0xaa,0x0d,0xa0,0x6a,0x6b,0xab,0x56,0x6f,0x00,0x80,0x7e,0x9b,0xfd,0x7a,
 0xff,0x6f,0x55,0xab,0x56,0x00,0x00,0x00,0x40,0x01,0x00,0x00,0x00,0xd0,0x00,
 0x00,0x00,0x00,0xd0,0xf6,0x17,0x80,0xb5,0x5a,0xb5,0xd5,0x3a,0x00,0x00,0xd5,
 0x6b,0x57,0x00,0xb4,0xfa,0x6d,0xb5,0xb5,0x02,0x00,0x00,0x40,0x03,0x00,0x00,
 0x00,0xa0,0x00,0x00,0x00,0x00,0xb0,0x6a,0x0d,0x40,0xab,0xd5,0x56,0xed,0x0f,
 0x00,0x00,0x7e,0xd5,0x0d,0x00,0xe0,0xaf,0x55,0xad,0x6a,0x05,0x00,0x00,0xb0,
 0x02,0x00,0x00,0x00,0x58,0x00,0x00,0x00,0x00,0xa8,0xb5,0x0f,0x80,0x5a,0xad,
 0x6a,0xb5,0x1a,0x00,0x00,0xac,0x6f,0x07,0x00,0x00,0x7a,0xdb,0x56,0xad,0x06,
 0x00,0x00,0x50,0x01,0x00,0x00,0x00,0xd0,0x02,0x00,0x00,0x00,0x58,0xed,0x06,
 0x60,0xb5,0x5a,0xdb,0xda,0x0f,0x00,0x00,0xf0,0xea,0x02,0x00,0x00,0xee,0x57,
 0xb5,0xd5,0x1a,0x00,0x00,0x6c,0x01,0x00,0x00,0x00,0x28,0x0e,0x00,0x00,0x00,
 0xb0,0xea,0x0b,0xc0,0xd6,0xd6,0xaa,0x76,0x03,0x00,0x00,0x40,0xb7,0x03,0x00,
 0x00,0xb8,0xad,0x55,0x6d,0x6b,0x00,0x00,0xa8,0x02,0x00,0x00,0x00,0x54,0x0b,
 0x00,0x00,0x00,0x50,0xbb,0x0e,0x70,0xad,0xb5,0x56,0xfd,0x05,0x00,0x00,0xd8,
 0xfd,0x00,0x00,0x00,0xd8,0xbe,0xb6,0x55,0x55,0x01,0x00,0x55,0x01,0x00,0x00,
 0x00,0x1a,0x07,0x00,0x00,0x00,0x68,0xf5,0x0b,0x70,0xab,0xaa,0xda,0x5e,0x03,
 0x00,0x00,0x50,0xaf,0x00,0x00,0x00,0xf0,0xd7,0xaa,0xb6,0x5a,0x15,0xa0,0xba,
 0x03,0x00,0x00,0x00,0xaa,0x05,0x00,0x00,0x00,0xb0,0xb6,0x0e,0xd0,0x5a,0x6d,
 0x55,0xeb,0x01,0x00,0x00,0xb4,0xfd,0x00,0x00,0x00,0x40,0x7f,0x6d,0xd5,0xb6,
 0xad,0x6a,0xab,0x81,0x02,0x00,0x80,0x55,0x07,0x00,0x00,0x00,0xa8,0xf5,0x03,
 0xf0,0x6a,0xab,0xb6,0x7f,0x00,0x00,0x00,0x0a,0x2e,0x00,0x00,0x00,0x80,0xab,
 0xab,0x5a,0x55,0x55,0x5b,0x55,0x01,0x05,0x00,0x40,0xcd,0x03,0x00,0x00,0x00,
 0xa8,0xba,0x06,0x58,0xab,0xda,0xea,0x1a,0x00,0x00,0x00,0x1a,0x7b,0x00,0x00,
 0x00,0x00,0xfe,0xda,0xd6,0x6a,0x6b,0xd5,0xb6,0xc1,0x02,0x00,0x40,0xab,0x02,
 0x00,0x00,0x00,0xb0,0xf6,0x03,0xfc,0xb5,0x55,0xb5,0x1f,0x00,0x00,0x80,0x25,
 0x2e,0x00,0x00,0x00,0x00,0xb6,0x57,0x55,0x5b,0xb5,0xad,0xda,0x40,0x0d,0x00,
 0x68,0xe5,0x03,0x00,0x00,0x00,0x58,0xab,0x06,0x54,0xad,0xb6,0xfd,0x0a,0x00,
 0x00,0x80,0x16,0x1a,0x00,0x00,0x00,0x00,0xdc,0xb6,0xad,0xd6,0x56,0xb5,0xd5,
 0x40,0x03,0x00,0xaa,0xa2,0x01,0x00,0x00,0x00,0xd0,0xfa,0x07,0xfc,0xd5,0xaa,
 0xae,0x07,0x00,0x00,0x80,0x72,0x1c,0x00,0x00,0x00,0x00,0xf0,0x5d,0xd5,0xaa,
 0xaa,0xaa,0x6a,0x60,0x2d,0x40,0xb5,0xf5,0x00,0x00,0x00,0x00,0x68,0x6d,0x05,
 0xd0,0xab,0x6d,0x7b,0x01,0x00,0x00,0x60,0x59,0x08,0x00,0x00,0x00,0x00,0xd0,
 0xd7,0x5a,0xb5,0x6d,0x57,0x7b,0xa0,0x5a,0x6d,0xab,0xa6,0x00,0x00,0x00,0x00,
 0x54,0xbd,0x03,0xf8,0xb6,0xaa,0xde,0x01,0x00,0x00,0xa0,0x3d,0x04,0x00,0x00,
 0x00,0x00,0x60,0x7d,0x6b,0x5b,0x55,0xb5,0x55,0xa0,0xd6,0xb6,0xda,0xfa,0x00,
 0x00,0x00,0x00,0x54,0xeb,0x02,0xa0,0x5f,0xf5,0x7b,0x00,0x00,0x00,0x58,0x35,
 0x00,0x00,0x00,0x00,0x00,0xc0,0x6b,0x55,0x55,0xdb,0x6a,0x75,0xb0,0x55,0xd5,
 0xaa,0x36,0x00,0x00,0x00,0x00,0xd8,0xfa,0x03,0xe0,0xf5,0xbf,0x5d,0x00,0x00,
 0x00,0x50,0x1f,0x00,0x00,0x00,0x00,0x00,0x80,0xde,0xb6,0xad,0x55,0xad,0x1a,
 0x50,0xb5,0x55,0x6d,0x6d,0x00,0x00,0x00,0x00,0x54,0x5d,0x01,0xa0,0xdf,0xf6,
 0x36,0x00,0x00,0x00,0xb4,0x05,0x00,0x00,0x00,0x00,0x00,0x00,0xfb,0x55,0xb5,
 0x6a,0xab,0x3d,0x68,0xab,0xb6,0xd5,0x3e,0x00,0x00,0x00,0x00,0x58,0xf7,0x01,
 0xc0,0xb5,0xaf,0x1f,0x00,0x00,0x00,0x94,0x0f,0x00,0x00,0x00,0x00,0x00,0x00,
 0x6e,0xab,0xd6,0x5a,0xd5,0x0e,0xa8,0xda,0xaa,0x5a,0x2f,0x00,0x00,0x00,0x00,
 0x6c,0x7d,0x01,0x00,0xff,0xfa,0x0a,0x00,0x00,0x00,0x5a,0x03,0x00,0x00,0x00,
 0x00,0x00,0x00,0xbc,0x6f,0x55,0xab,0xad,0x1b,0x6c,0x55,0x6d,0xd5,0x35,0x00,
 0x00,0x00,0x00,0xa8,0xea,0x01,0x80,0xad,0xbf,0x03,0x00,0x00,0x00,0xe6,0x06,
 0x00,0x00,0x00,0x00,0x00,0x00,0xe8,0x5b,0x6b,0x6d,0xd5,0x1e,0xaa,0xb6,0x56,
 0x5b,0x1f,0x00,0x00,0x00,0x00,0xd4,0xbe,0x00,0x00,0xf7,0xea,0x00,0x00,0x00,
 0x80,0xd5,0x03,0x00,0x00,0x00,0x00,0x00,0x00,0xb0,0xde,0x56,0x55,0xdb,0x05,
 0xb4,0xd5,0xaa,0xd6,0x0d,0x00,0x00,0x00,0x00,0xac,0xdb,0x00,0x00,0xbc,0xbf,
 0x00,0x00,0x00,0x80,0x72,0x01,0x00,0x00,0x00,0x00,0x0a,0x00,0xc0,0x77,0xb5,
 0xb6,0x6a,0x0f,0xad,0x5a,0xdb,0x6a,0x0b,0x00,0x00,0x00,0x00,0x6a,0xf6,0x00,
 0x00,0xe8,0x3a,0x00,0x00,0x00,0x40,0xe9,0x00,0x00,0x00,0x00,0x00,0x2a,0x00,
 0x40,0x5d,0x6d,0xd5,0xfe,0x0d,0x6a,0x55,0xb5,0xfa,0x0f,0x00,0x00,0x00,0x00,
 0xaa,0xde,0x00,0x00,0x00,0x07,0x00,0x00,0x00,0x40,0x3d,0x00,0x00,0x00,0x00,
 0x00,0x2d,0x00,0x80,0xf7,0x55,0x5b,0x55,0x07,0x56,0xdb,0xaa,0x6e,0x05,0x00,
 0x00,0x00,0x00,0x5a,0x37,0x00,0x00,0x00,0x00,0x00,0x00,0x00,0xb0,0x76,0x00,
 0x00,0x00,0x00,0x80,0xda,0x00,0x00,0xdd,0xd7,0xaa,0xff,0x02,0xad,0x56,0x6b,
 0xbb,0x07,0x00,0x00,0x00,0x00,0xb4,0x7d,0x00,0x00,0x00,0x00,0x00,0x00,0x00,
 0xd0,0x2e,0x00,0x00,0x00,0x00,0x40,0xab,0x02,0x00,0x76,0xbd,0x7a,0xab,0x03,
 0xd4,0xaa,0x5a,0xef,0x01,0x00,0x00,0x00,0x00,0x56,0x5b,0x00,0x00,0x00,0x00,
 0x00,0x00,0x00,0x50,0x1e,0x00,0x00,0x00,0x00,0x80,0x6a,0x05,0x00,0xdc,0xf7,
 0xef,0xfd,0x00,0x5a,0x6d,0xeb,0xbd,0x03,0x00,0x00,0x00,0x00,0x55,0x2e,0x00,
 0x00,0x00,0x00,0x00,0x00,0x00,0xac,0x07,0x00,0x00,0x00,0x00,0x60,0xad,0x05,
 0x00,0xb0,0xdd,0x7a,0x37,0x00,0xd4,0x56,0x6d,0xef,0x00,0x00,0x00,0x00,0x00,
 0x36,0x3b,0x00,0x00,0x00,0x00,0x00,0x00,0x00,0xa8,0x0e,0x00,0x00,0x00,0x08,
 0xa0,0x55,0x0b,0x00,0xf0,0x76,0xef,0x1f,0x00,0xac,0xda,0xba,0xbd,0x00,0x00,
 0x00,0x00,0x00,0xd5,0x2f,0x00,0x00,0x00,0x00,0x00,0x00,0x00,0x94,0x03,0x00,
 0x00,0x00,0x14,0xa0,0xb6,0x0a,0x00,0xa0,0xdf,0x7b,0x15,0x00,0xb4,0x55,0xed,
 0x6b,0x00,0x00,0x00,0x00,0x00,0xaa,0x3a,0x00,0x00,0x00,0x00,0x00,0x00,0x00,
 0xfb,0x02,0x00,0x00,0x00,0x34,0x58,0xd5,0x36,0x00,0xc0,0x7a,0xef,0x0f,0x00,
 0x5e,0xeb,0xbf,0x3f,0x00,0x00,0x00,0x00,0x80,0xad,0x0f,0x00,0x00,0x00,0x00,
 0x00,0x00,0x00,0xa5,0x03,0x00,0x00,0x00,0x0b,0xd4,0x5a,0x15,0x00,0x80,0xdf,
 0x5b,0x01,0x00,0xf4,0xba,0xea,0x0a,0x00,0x00,0x00,0x00,0x80,0x96,0x1a,0x00,
 0x00,0x00,0x00,0x00,0x00,0x00,0xf5,0x00,0x00,0x00,0x00,0x0d,0xa8,0xb5,0x2a,
 0x00,0x00,0x6c,0xff,0x01,0x00,0xde,0xef,0xbf,0x0f,0x00,0x00,0x00,0x00,0x00,
 0xd5,0x0f,0x00,0x00,0x00,0x00,0x00,0x00,0x40,0xab,0x00,0x00,0x00,0x40,0x05,
 0xb6,0xd6,0x36,0x00,0x00,0xf0,0x2b,0x00,0x00,0x76,0x7b,0xeb,0x05,0x00,0x00,
 0x00,0x00,0x80,0x95,0x0a,0x00,0x00,0x00,0x00,0x00,0x00,0x40,0x79,0x00,0x00,
 0x00,0xb0,0x05,0x6a,0x55,0x2d,0x00,0x00,0x00,0x00,0x00,0x00,0xdc,0xed,0xbd,
 0x03,0x00,0x00,0x00,0x00,0x00,0xcd,0x0f,0x00,0x00,0x00,0x00,0x00,0x00,0x40,
 0x5d,0x00,0x00,0x00,0xa8,0x02,0xad,0xb5,0x55,0x00,0x00,0x00,0x00,0x00,0x00,
 0x74,0x7f,0x6f,0x00,0x00,0x00,0x00,0x00,0x80,0x56,0x0b,0x00,0x00,0x00,0x00,
 0x00,0x00,0xb0,0x36,0x00,0x00,0x00,0x68,0x39,0x55,0xad,0x6a,0x00,0x00,0x00,
 0x00,0x00,0x00,0xd8,0xd5,0x7d,0x00,0x00,0x00,0x00,0x00,0xc0,0xea,0x0d,0x00,
 0x00,0x00,0x00,0x00,0x00,0xa0,0x1e,0x00,0x00,0x00,0x56,0xad,0xb6,0xd6,0xb6,
 0x00,0x00,0x00,0x00,0x00,0x00,0x70,0x7f,0x17,0x00,0x00,0x00,0x00,0x00,0x80,
 0x4a,0x07,0x00,0x00,0x00,0x00,0x00,0x00,0x68,0x15,0x00,0x00,0x00,0xda,0x3a,
 0xd4,0xaa,0xaa,0x00,0x00,0x00,0x00,0x00,0x00,0xe0,0xed,0x0d,0x00,0x00,0x00,
 0x00,0x00,0x40,0xeb,0x05,0x00,0x00,0x00,0x00,0x00,0x00,0x28,0x0f,0x00,0x00,
 0x80,0xaa,0x0e,0xac,0x6a,0x5b,0x00,0x00,0x00,0x00,0x00,0x00,0x40,0x7b,0x03,
 0x00,0x00,0x00,0x00,0x00,0x80,0x62,0x07,0x00,0x00,0x00,0x00,0x00,0x00,0x94,
 0x02,0x00,0x00,0x40,0xab,0x0b,0x6c,0x5b,0xb5,0x00,0x00,0x00,0x00,0x00,0x00,
 0x00,0x6f,0x00,0x00,0x00,0x00,0x00,0x00,0x60,0xd3,0x01,0x00,0x00,0x00,0x00,
 0x00,0x00,0xec,0x07,0x00,0x00,0x60,0xed,0x0e,0x7a,0xad,0xaa,0x00,0x00,0x00,
 0x00,0x00,0x00,0x00,0x00,0x00,0x00,0x00,0x00,0x00,0x00,0x40,0x75,0x03,0x00,
 0x00,0x00,0x00,0x00,0x00,0x9a,0x02,0x00,0x00,0x58,0xd5,0x03,0xaf,0x6a,0x5b,
 0x01,0x00,0x00,0x00,0x00,0x00,0x00,0x00,0x00,0x00,0x00,0x00,0x00,0x00,0xa0,
 0xd5,0x01,0x00,0x00,0x00,0x00,0x00,0x00,0xe6,0x01,0x00,0x00,0x54,0xeb,0x02,
 0x7a,0xab,0xd5,0x00,0x00,0x00,0x00,0x00,0x00,0x00,0x00,0x00,0x00,0x00,0x00,
 0x00,0x00,0x60,0xf1,0x01,0x00,0x00,0x00,0x00,0x00,0x80,0xbd,0x00,0x00,0x00,
 0xb4,0xb6,0x83,0xef,0x56,0xad,0x00,0x00,0x00,0x00,0x00,0x00,0x00,0x00,0x00,
 0x00,0x00,0x00,0x00,0x00,0x50,0x53,0x01,0x00,0x00,0x00,0x00,0x00,0x00,0xe5,
 0x00,0x00,0x00,0xd6,0xfa,0x41,0xbb,0xdb,0x6a,0x01,0x00,0x00,0x00,0x00,0x00,
 0x00,0x00,0x00,0x00,0x00,0x00,0x00,0x00,0x50,0xf9,0x01,0x00,0x00,0x00,0x00,
 0x00,0x40,0x3b,0x00,0x00,0x40,0x55,0xad,0x00,0xef,0xaa,0xd5,0x00,0x00,0x00,
 0x00,0x00,0x00,0x00,0x00,0x00,0x00,0x00,0x00,0x00,0x00,0x68,0xa9,0x01,0x00,
 0x00,0x00,0x00,0x00,0xa0,0x7a,0x00,0x00,0xa0,0xb6,0xfe,0x00,0xba,0xb7,0x5a,
 0x01,0x00,0x00,0x00,0x00,0x00,0x00,0x00,0x00,0x00,0x00,0x00,0x00,0x00,0xa8,
 0xf8,0x00,0x00,0x00,0x00,0x00,0x00,0xc0,0x2e,0x00,0x00,0xa0,0xd5,0x6b,0x00,
 0xe8,0x56,0xab,0x00,0x00,0x00,0x00,0x00,0x00,0x00,0x00,0x00,0x00,0x00,0x00,
 0x00,0x00,0xd0,0x54,0x00,0x00,0x00,0x00,0x00,0x00,0xb0,0x1a,0x00,0x00,0xd8,
 0xda,0x5e,0x00,0xf0,0xad,0xb5,0x01,0x00,0x00,0x00,0x00,0x00,0x00,0x00,0x00,
 0x00,0x00,0x00,0x00,0x00,0xb4,0x7c,0x00,0x00,0x00,0x00,0x00,0x00,0xa0,0x0d,
 0x00,0x00,0x55,0x75,0x3b,0x00,0x40,0x6f,0xad,0x00,0x00,0x00,0x00,0x00,0x00,
 0x00,0x00,0x00,0x00,0x00,0x00,0x00,0x00,0xa8,0x74,0x00,0x00,0x00,0x00,0x00,
 0x00,0xd0,0x0a,0x00,0x00,0x6d,0xdb,0x1f,0x00,0xc0,0x5b,0x55,0x01,0x00,0x00,
 0x00,0x00,0x00,0x00,0x00,0x00,0x00,0x00,0x00,0x00,0x00,0x5c,0x5c,0x00,0x00,
 0x00,0x00,0x00,0x00,0x58,0x0b,0x00,0xa0,0x55,0x6d,0x05,0x00,0x80,0xae,0x6d,
 0x01,0x00,0x00,0x00,0x00,0x00,0x00,0x00,0x00,0x00,0x00,0x00,0x00,0x00,0x54,
 0x36,0x00,0x00,0x00,0x00,0x00,0x00,0x50,0x0d,0x00,0xa8,0xb6,0xfa,0x07,0x00,
 0x80,0x6f,0x55,0x01,0x00,0x00,0x00,0x00,0x00,0x00,0x00,0x00,0x00,0x00,0x00,
 0x00,0x00,0x2a,0x3e,0x00,0x00,0x00,0x00,0x00,0x00,0x6c,0x15,0x00,0x68,0xd5,
 0xae,0x01,0x00,0x00,0x5a,0xdb,0x00,0x00,0x00,0x00,0x00,0x00,0x00,0x00,0x00,
 0x00,0x00,0x00,0x00,0x00,0x2a,0x15,0x00,0x00,0x00,0x00,0x00,0x00,0xa8,0x56,
 0x81,0xb6,0x5a,0xfb,0x00,0x00,0x00,0x7e,0x55,0x01,0x00,0x00,0x00,0x00,0x00,
 0x00,0x00,0x00,0x00,0x00,0x00,0x00,0x00,0x1a,0x1f,0x00,0x00,0x00,0x00,0x00,
 0x00,0xda,0xaa,0x6a,0xd5,0xd6,0x2f,0x00,0x00,0x00,0xca,0xaa,0x00,0x00,0x00,
 0x00,0x00,0x00,0x00,0x00,0x00,0x00,0x00,0x00,0x00,0x00,0x15,0x1a,0x00,0x00,
 0x00,0x00,0x00,0x00,0x54,0x6d,0x5b,0xab,0x6a,0x3b,0x00,0x00,0x00,0xbc,0x76,
 0x00,0x00,0x00,0x00,0x00,0x00,0x00,0x00,0x00,0x00,0x00,0x00,0x00,0x00,0x0d,
 0x0f,0x00,0x00,0x00,0x00,0x00,0x00,0xab,0x55,0xd5,0xb6,0xf5,0x0d,0x00,0x00,
 0x00,0xb4,0xd5,0x00,0x00,0x00,0x00,0x00,0x00,0x00,0x00,0x00,0x00,0x00,0x00,
 0x00,0x00,0x8a,0x0a,0x00,0x00,0x00,0x00,0x00,0x00,0xda,0xda,0x5a,0x55,0x5d,
 0x0f,0x00,0x00,0x00,0xb8,0x5a,0x00,0x00,0x00,0x00,0x00,0x00,0x00,0x00,0x00,
 0x00,0x00,0x00,0x00,0x00,0x87,0x0f,0x00,0x00,0x00,0x00,0x00,0x80,0xb5,0x56,
 0xab,0x5a,0xfb,0x05,0x00,0x00,0x00,0x70,0x55,0x00,0x00,0x00,0x00,0x00,0x00,
 0x00,0x00,0x00,0x00,0x00,0x00,0x00,0x80,0x8a,0x0a,0x00,0x00,0x00,0x00,0x00,
 0x00,0xad,0x6a,0xd5,0xd6,0x6e,0x01,0x00,0x00,0x00,0xb8,0xad,0x00,0x00,0x00,
 0x00,0x00,0x00,0x00,0x00,0x00,0x00,0x00,0x00,0x00,0x00,0x85,0x07,0x00,0x00,
 0x00,0x00,0x00,0x80,0xaa,0x55,0x5b,0xb5,0xbb,0x00,0x00,0x00,0x00,0xa0,0xda,
 0x00,0x00,0x00,0x00,0x00,0x00,0x00,0x00,0x00,0x00,0x00,0x00,0x00,0x80,0x45,
 0x05,0x00,0x00,0x00,0x00,0x00,0x40,0xb5,0xb6,0xd5,0xd6,0x6e,0x00,0x00,0x00,
 0x00,0x70,0x55,0x00,0x00,0x00,0x00,0x00,0x00,0x00,0x00,0x02,0x00,0x00,0x00,
 0x00,0x40,0xc5,0x07,0x00,0x00,0x00,0x00,0x00,0x80,0x6b,0x55,0xad,0xfa,0x3b,
 0x00,0x00,0x00,0x00,0xa0,0xad,0x00,0x00,0x00,0x00,0x00,0x00,0x00,0x80,0x01,
 0x00,0x00,0x00,0x00,0x80,0x82,0x06,0x00,0x00,0x00,0x00,0x00,0xc0,0xac,0x6a,
 0xb5,0xad,0x1e,0x00,0x00,0x00,0x00,0xa0,0xd6,0x00,0x00,0x00,0x00,0x00,0x00,
 0x00,0x40,0x01,0x00,0x00,0x00,0x00,0xc0,0xc6,0x03,0x00,0x00,0x00,0x00,0x00,
 0x80,0xaa,0xad,0x55,0xfd,0x0b,0x00,0x00,0x00,0x00,0x60,0xb5,0x00,0x00,0x00,
 0x00,0x00,0x00,0x00,0xc0,0x01,0x00,0x00,0x00,0x00,0x80,0xa1,0x02,0x00,0x00,
 0x00,0x00,0x00,0x40,0xdb,0xb6,0xda,0xb6,0x02,0x00,0x00,0x00,0x00,0xa0,0xaa,
 0x00,0x00,0x00,0x00,0x00,0x00,0x00,0x60,0x01,0x00,0x00,0x00,0x00,0xa0,0xe2,
 0x03,0x00,0x00,0x00,0x00,0x00,0x80,0x56,0x55,0xab,0xdf,0x01,0x00,0x00,0x00,
 0x00,0xa0,0xed,0x00,0x00,0x00,0x00,0x00,0x00,0x00,0xc0,0x21,0x00,0x00,0x00,
 0x00,0xa0,0x52,0x01,0x00,0x00,0x00,0x00,0x00,0x80,0xaa,0xaa,0xed,0xf5,0x00,
 0x00,0x00,0x00,0x00,0xa0,0x56,0x00,0x00,0x00,0x00,0x00,0x00,0x00,0x70,0x51,
 0x00,0x00,0x00,0x00,0x50,0xf1,0x01,0x00,0x00,0x00,0x00,0x00,0x80,0xb5,0x6d,
 0xba,0x5f,0x00,0x00,0x00,0x00,0x00,0x60,0x75,0x00,0x00,0x00,0x00,0x00,0x00,
 0x00,0xd0,0x21,0x00,0x00,0x00,0x00,0x60,0x63,0x01,0x00,0x00,0x00,0x00,0x00,
 0x00,0xdb,0xaa,0xef,0x35,0x00,0x00,0x00,0x00,0x00,0xa0,0x55,0x00,0x00,0x00,
 0x00,0x00,0x00,0x00,0xf0,0x68,0x00,0x00,0x00,0x00,0xb0,0xd8,0x01,0x00,0x00,
 0x00,0x00,0x00,0x80,0xab,0xd6,0xb6,0x0f,0x00,0x00,0x00,0x00,0x00,0xa0,0x76,
 0x00,0x00,0x00,0x00,0x00,0x00,0x00,0xd8,0x51,0x00,0x00,0x00,0x00,0xd0,0x78,
 0x01,0x00,0x00,0x00,0x00,0x00,0x80,0x56,0xf5,0xfd,0x02,0x00,0x00,0x00,0x00,
 0x00,0xa0,0x3a,0x00,0x00,0x00,0x00,0x00,0x00,0x00,0x7c,0x34,0x00,0x00,0x00,
 0x00,0x50,0xd1,0x01,0x00,0x00,0x00,0x00,0x00,0x80,0xbf,0xdf,0xd7,0x03,0x00,
 0x00,0x00,0x00,0x00,0x60,0x2d,0x00,0x00,0x00,0x00,0x00,0x00,0x00,0xe8,0x28,
 0x00,0x00,0x00,0x00,0x58,0x7d,0x00,0x00,0x00,0x00,0x00,0x00,0x00,0xeb,0x76,
 0x7d,0x00,0x00,0x00,0x00,0x00,0x00,0x40,0x3b,0x00,0x00,0x00,0x00,0x00,0x00,
 0x00,0xbe,0x1a,0x00,0x00,0x00,0x00,0xa8,0xd8,0x00,0x00,0x00,0x00,0x00,0x00,
 0x80,0xbd,0xdb,0x77,0x00,0x00,0x00,0x00,0x00,0x00,0x60,0x2d,0x00,0x00,0x00,
 0x00,0x00,0x00,0x00,0x7a,0x34,0x00,0x00,0x00,0x00,0xb4,0xee,0x00,0x00,0x00,
 0x00,0x00,0x00,0x00,0xef,0xfe,0x0d,0x00,0x00,0x00,0x00,0x00,0x00,0xa0,0x3a,
 0x00,0x00,0x00,0x00,0x00,0x00,0x00,0x5e,0x16,0x00,0x00,0x00,0x00,0x58,0x7a,
 0x00,0x00,0x00,0x00,0x00,0x00,0x00,0xfa,0xab,0x07,0x00,0x00,0x00,0x00,0x00,
 0x00,0x60,0x0f,0x00,0x00,0x00,0x00,0x00,0x00,0x00,0x2b,0x2d,0x00,0x00,0x00,
 0x00,0xd6,0x6e,0x00,0x00,0x00,0x00,0x00,0x00,0x00,0xbc,0x7e,0x00,0x00,0x00,
 0x00,0x00,0x00,0x00,0xa0,0x1a,0x00,0x00,0x00,0x00,0x00,0x00,0x80,0x9f,0x15,
 0x00,0x00,0x00,0x00,0x2a,0x5b,0x00,0x00,0x00,0x00,0x00,0x00,0x00,0xf0,0x1b,
 0x00,0x00,0x00,0x00,0x00,0x00,0x00,0x60,0x0f,0x00,0x00,0x00,0x00,0x00,0x00,
 0x40,0x4d,0x1b,0x00,0x00,0x00,0x00,0x34,0x7d,0x00,0x00,0x00,0x00,0x00,0x00,
 0x00,0xa0,0x00,0x00,0x00,0x00,0x00,0x00,0x00,0x00,0xc0,0x0b,0x00,0x00,0x00,
 0x00,0x00,0x00,0xc0,0x8f,0x0a,0x00,0x00,0x00,0x00,0x5a,0x1f,0x00,0x00,0x00,
 0x00,0x00,0x00,0x00,0x00,0x00,0x00,0x00,0x00,0x00,0x00,0x00,0x00,0x60,0x07,
 0x00,0x00,0x00,0x00,0x00,0x00,0xa0,0x62,0x05,0x00,0x00,0x00,0x00,0x55,0x3a,
 0x00,0x00,0x00,0x00,0x00,0x00,0x00,0x00,0x00,0x00,0x00,0x00,0x00,0x00,0x00,
 0x00,0xc0,0x05,0x00,0x00,0x00,0x00,0x00,0x00,0xe0,0xa7,0x06,0x00,0x00,0x00,
 0x00,0x96,0x2f,0x00,0x00,0x00,0x00,0x00,0x00,0x00,0x00,0x00,0x00,0x00,0x00,
 0x00,0x00,0x00,0x00,0x60,0x03,0x00,0x00,0x00,0x00,0x00,0x00,0x50,0xa3,0x05,
 0x00,0x00,0x00,0x00,0xad,0x36,0x00,0x00,0x00,0x00,0x00,0x00,0x00,0x00,0x00,
 0x00,0x00,0x00,0x00,0x00,0x00,0x00,0xe0,0x03,0x00,0x00,0x00,0x00,0x00,0x00,
 0xf0,0x51,0x01,0x00,0x00,0x00,0x00,0x95,0x1d,0x00,0x00,0x00,0x00,0x00,0x00,
 0x00,0x00,0x00,0x00,0x00,0x00,0x00,0x00,0x00,0x00,0xa0,0x02,0x00,0x00,0x00,
 0x00,0x00,0x00,0xa8,0xb0,0x00,0x00,0x00,0x00,0x00,0x95,0x17,0x00,0x00,0x00,
 0x00,0x00,0x00,0x00,0x00,0x00,0x00,0x00,0x00,0x00,0x00,0x00,0x00,0xe0,0x03,
 0x00,0x00,0x00,0x00,0x00,0x00,0xf8,0xa8,0x01,0x00,0x00,0x00,0x00,0x1b,0x1d,
 0x00,0x00,0x00,0x00,0x00,0x00,0x00,0x00,0x00,0x00,0x00,0x00,0x00,0x00,0x00,
 0x00,0x40,0x01,0x00,0x00,0x00,0x00,0x00,0x00,0xd4,0x54,0x00,0x00,0x00,0x00,
 0x80,0xca,0x07,0x00,0x00,0x00,0x00,0x00,0x00,0x00,0x00,0x00,0x00,0x00,0x00,
 0x00,0x00,0x00,0x00,0xc0,0x00,0x00,0x00,0x00,0x00,0x00,0x00,0x7c,0xd8,0x00,
 0x00,0x00,0x00,0x80,0xd5,0x0d,0x00,0x00,0x00,0x00,0x00,0x00,0x00,0x00,0x00,
 0x00,0x00,0x00,0x00,0x00,0x00,0x00,0x00,0x00,0x00,0x00,0x00,0x00,0x00,0x00,
 0x2a,0x2a,0x00,0x00,0x00,0x00,0x80,0x86,0x07,0x00,0x00,0x00,0x00,0x00,0x00,
 0x00,0x00,0x00,0x00,0x00,0x00,0x00,0x00,0x00,0x00,0x00,0x00,0x00,0x00,0x00,
 0x00,0x00,0x00,0x3e,0x2c,0x00,0x00,0x00,0x00,0xc0,0xca,0x05,0x00,0x00,0x00,
 0x00,0x00,0x00,0x00,0x00,0x00,0x00,0x00,0x00,0x00,0x00,0x00,0x00,0x00,0x00,
 0x00,0x00,0x00,0x00,0x00,0x00,0x35,0x15,0x00,0x00,0x00,0x00,0x80,0xaa,0x06,
 0x00,0x00,0x00,0x00,0x00,0x00,0x00,0x00,0x00,0x00,0x00,0x00,0x00,0x00,0x00,
 0x00,0x00,0x00,0x00,0x00,0x00,0x00,0x00,0x00,0x1f,0x16,0x00,0x00,0x00,0x00,
 0x80,0xe6,0x07,0x00,0x00,0x00,0x00,0x00,0x00,0x00,0x00,0x00,0x00,0x00,0x00,
 0x00,0x00,0x00,0x00,0x00,0x00,0x00,0x00,0x00,0x00,0x00,0x80,0x85,0x1a,0x00,
 0x00,0x00,0x00,0x60,0xa5,0x05,0x00,0x00,0x00,0x00,0x00,0x00,0x00,0x00,0x00,
 0x00,0x00,0x00,0x00,0x00,0x00,0x00,0x00,0x00,0x00,0x00,0x00,0x00,0x00,0xc0,
 0x0f,0x05,0x00,0x00,0x00,0x00,0x40,0x6b,0x07,0x00,0x00,0x00,0x00,0x00,0x00,
 0x00,0x00,0x00,0x00,0x00,0x00,0x00,0x00,0x00,0x00,0x00,0x00,0x00,0x00,0x00,
 0x00,0x00,0x40,0xc5,0x06,0x00,0x00,0x00,0x00,0xa0,0xd6,0x05,0x00,0x00,0x00,
 0x00,0x00,0x00,0x00,0x00,0x00,0x00,0x00,0x00,0x00,0x00,0x00,0x00,0x00,0x00,
 0x00,0x00,0x00,0x00,0x00,0xc0,0x47,0x05,0x00,0x00,0x00,0x00,0xc0,0x72,0x03,
 0x00,0x00,0x00,0x00,0x00,0x00,0x00,0x00,0x00,0x00,0x00,0x00,0x00,0x00,0x00,
 0x00,0x00,0x00,0x04,0x00,0x00,0x00,0x00,0x60,0xa1,0x05,0x00,0x00,0x00,0x00,
 0xa0,0xe5,0x01,0x00,0x00,0x00,0x00,0x00,0x00,0x00,0x00,0x00,0x00,0x00,0x00,
 0x00,0x00,0x00,0x00,0x00,0x00,0x00,0x00,0x00,0x00,0x00,0xf0,0xa3,0x02,0x00,
 0x00,0x00,0x00,0xa0,0x72,0x03,0x00,0x00,0x00,0x00,0x00,0x00,0x00,0x00,0x00,
 0x00,0x00,0x00,0x00,0x00,0x00,0x00,0x00,0x00,0x02,0x00,0x00,0x00,0x00,0x50,
 0x51,0x01,0x00,0x00,0x00,0x00,0xb0,0xee,0x03,0x00,0x00,0x00,0x00,0x00,0x00,
 0x00,0x00,0x00,0x00,0x00,0x00,0x00,0x00,0x00,0x00,0x00,0x00,0x01,0x00,0x00,
 0x00,0x00,0xf0,0xb1,0x01,0x00,0x00,0x00,0x00,0xa0,0x79,0x01,0x00,0x00,0x00,
 0x00,0x00,0x00,0x00,0x00,0x00,0x00,0x00,0x00,0x00,0x00,0x00,0x00,0x00,0x00,
 0x03,0x00,0x00,0x00,0x00,0xdc,0x68,0x01,0x00,0x00,0x00,0x00,0x50,0xe9,0x01,
 0x00,0x00,0x00,0x00,0x00,0x00,0x00,0x00,0x00,0x00,0x00,0x00,0x00,0x00,0x00,
 0x00,0x00,0x00,0x01,0x00,0x00,0x00,0x00,0x74,0x54,0x00,0x00,0x00,0x00,0x00,
 0xd0,0x5a,0x01,0x00,0x00,0x00,0x00,0x00,0x00,0x00,0x00,0x00,0x00,0x00,0x00,
 0x00,0x00,0x00,0x00,0x00,0xc0,0x02,0x00,0x00,0x00,0x00,0x5e,0xa8,0x00,0x00,
 0x00,0x00,0x00,0x58,0xfd,0x01,0x00,0x00,0x00,0x00,0x00,0x00,0x00,0x00,0x00,
 0x00,0x00,0x00,0x00,0x00,0x00,0x00,0x00,0x40,0x01,0x00,0x00,0x00,0x00,0x77,
 0x5a,0x00,0x00,0x00,0x00,0x00,0xa8,0xad,0x00,0x00,0x00,0x00,0x00,0x00,0x00,
 0x00,0x00,0x00,0x00,0x00,0x00,0x00,0x00,0x00,0x00,0x00,0xa0,0x04,0x00,0x00,
 0x02,0x80,0x1a,0x2a,0x00,0x00,0x00,0x00,0x00,0xb0,0xfc,0x01,0x00,0x00,0x00,
 0x00,0x00,0x00,0x00,0x00,0x00,0x00,0x00,0x00,0x00,0x00,0x00,0x00,0x00,0x50,
 0x03,0x00,0x00,0x07,0x80,0x3f,0x35,0x00,0x00,0x00,0x00,0x00,0x58,0xad,0x00,
 0x00,0x00,0x00,0x00,0x00,0x00,0x00,0x00,0x00,0x00,0x00,0x00,0x00,0x00,0x00,
 0x00,0x00,0xb0,0x02,0x00,0x80,0x0a,0x40,0x2d,0x2d,0x00,0x00,0x00,0x00,0x00,
 0xd0,0xf4,0x00,0x00,0x00,0x00,0x00,0x00,0x00,0x00,0x00,0x00,0x00,0x00,0x00,
 0x00,0x00,0x00,0x00,0x00,0xd0,0x02,0x00,0x80,0x0f,0xc0,0x5b,0x0b,0x00,0x00,
 0x00,0x00,0x00,0x54,0x7d,0x00,0x00,0x00,0x00,0x00,0x00,0x00,0x00,0x00,0x00,
 0x00,0x00,0x00,0x00,0x00,0x00,0x00,0x00,0xac,0x03,0x00,0x40,0x1d,0x70,0x4f,
 0x15,0x00,0x00,0x00,0x00,0x00,0x58,0xd5,0x00,0x00,0x00,0x00,0x00,0x00,0x00,
 0x00,0x00,0x00,0x00,0x00,0x00,0x00,0x00,0x00,0x00,0x00,0x54,0x01,0x00,0xc0,
 0x97,0xfc,0xad,0x0a,0x00,0x00,0x00,0x00,0x00,0xac,0xfe,0x00,0x00,0x00,0x00,
 0x00,0x00,0x00,0x00,0x00,0x00,0x00,0x00,0x00,0x00,0x00,0x00,0x00,0x00,0xdb,
 0x03,0x00,0x70,0x5b,0xab,0x67,0x0b,0x00,0x00,0x00,0x00,0x00,0x68,0x5a,0x00,
 0x00,0x00,0x00,0x00,0x00,0x00,0x00,0x00,0x00,0x00,0x00,0x00,0x00,0x00,0x00,
 0x00,0x00,0xaa,0x00,0x00,0xf8,0x6e,0xfd,0xaa,0x05,0x00,0x00,0x00,0x00,0x00,
 0xac,0x6e,0x00,0x00,0x00,0x00,0x00,0x00,0x00,0x00,0x00,0x00,0x00,0x00,0x00,
 0x00,0x00,0x00,0x00,0x80,0xb6,0x01,0x00,0xa8,0xaf,0xd6,0xab,0x02,0x00,0x00,
 0x00,0x00,0x00,0xa8,0x3c,0x00,0x00,0x00,0x00,0x00,0x00,0x00,0x00,0x00,0x00,
 0x00,0x00,0x00,0x00,0x00,0x00,0x00,0x40,0x55,0x01,0x00,0xf4,0xb5,0x7d,0xb5,
 0x02,0x00,0x00,0x00,0x00,0x00,0x68,0x6e,0x00,0x00,0x00,0x00,0x00,0x00,0x00,
 0x00,0x00,0x00,0x00,0x00,0x00,0x00,0x00,0x00,0x00,0x80,0xad,0x01,0x00,0xdc,
 0x56,0xf5,0x6a,0x01,0x00,0x00,0x00,0x00,0x00,0x56,0x3b,0x00,0x00,0x00,0x00,
 0x00,0x00,0x00,0x00,0x00,0x00,0x00,0x00,0x00,0x00,0x00,0x00,0x00,0x60,0xd5,
 0x01,0x00,0xf6,0x55,0x55,0xad,0x00,0x00,0x00,0x00,0x00,0x00,0x5a,0x6e,0x00,
 0x00,0x00,0x00,0x00,0x00,0x00,0x00,0x00,0x00,0x00,0x00,0x00,0x00,0x00,0x00,
 0x00,0xa0,0x76,0x00,0x00,0x5a,0xdb,0x56,0xab,0x00,0x00,0x00,0x00,0x00,0x00,
 0x54,0x3b,0x00,0x00,0x00,0x00,0x00,0x00,0x00,0x00,0x00,0x00,0x00,0x00,0x00,
 0x00,0x00,0x00,0x00,0xd8,0xda,0x00,0x00,0xfe,0x6d,0xab,0x55,0x00,0x00,0x00,
 0x00,0x00,0x00,0x5a,0x2e,0x00,0x00,0x00,0x00,0x00,0x00,0x00,0x00,0x00,0x00,
 0x00,0x00,0x00,0x00,0x00,0x00,0x00,0x50,0x75,0x00,0x80,0x6b,0x55,0x6d,0x6d,
 0x00,0x00,0x00,0x00,0x00,0x00,0x54,0x3f,0x00,0x00,0x00,0x00,0x00,0x00,0x00,
 0x00,0x00,0x00,0x00,0x00,0x00,0x00,0x00,0x00,0x00,0x68,0xdb,0x00,0x80,0xde,
 0x56,0x55,0x15,0x00,0x00,0x00,0x00,0x00,0x00,0x36,0x15,0x00,0x00,0x00,0x00,
 0x00,0x00,0x00,0x00,0x00,0x00,0x00,0x00,0x00,0x00,0x00,0x00,0x00,0x56,0x7d,
 0x00,0xc0,0x7b,0xb5,0xad,0x0d,0x00,0x00,0x00,0x00,0x00,0x00,0x55,0x3f,0x00,
 0x00,0x00,0x00,0x00,0x00,0x00,0x00,0x00,0x00,0x00,0x00,0x00,0x00,0x00,0x00,
 0x00,0xb4,0x56,0x00,0xe0,0xb6,0x5a,0xd5,0x0a,0x00,0x00,0x00,0x00,0x00,0x00,
 0x2d,0x2b,0x00,0x00,0x00,0x00,0x00,0x00,0x00,0x00,0x00,0x00,0x00,0x00,0x00,
 0x00,0x00,0x00,0x00,0xad,0x3b,0x00,0xc0,0xdf,0xd6,0x5a,0x05,0x00,0x00,0x00,
 0x00,0x00,0x00,0x9a,0x3f,0x00,0x00,0x00,0x00,0x00,0x00,0x00,0x00,0x00,0x00,
 0x00,0x00,0x00,0x00,0x00,0x00,0x00,0xd5,0x1e,0x00,0xf0,0x5a,0x55,0xad,0x06,
 0x00,0x00,0x00,0x00,0x00,0x00,0xab,0x15,0x00,0x00,0x00,0x00,0x00,0x00,0x00,
 0x00,0x00,0x00,0x00,0x00,0x00,0x00,0x00,0x00,0x80,0xb5,0x0b,0x00,0x50,0xaf,
 0xad,0xb5,0x05,0x00,0x00,0x00,0x00,0x00,0x80,0x96,0x3f,0x00,0x00,0x00,0x00,
 0x00,0x00,0x00,0x00,0x00,0x00,0x00,0x00,0x00,0x00,0x00,0x00,0x40,0xad,0x0e,
 0x00,0xf0,0x6b,0xd5,0x56,0x01,0x00,0x00,0x00,0x00,0x00,0x80,0xaa,0x2a,0x00,
 0x00,0x00,0x00,0x00,0x00,0x00,0x00,0x00,0x00,0x00,0x00,0x00,0x00,0x00,0x00,
 0xa0,0xea,0x05,0x00,0xd8,0x56,0x5b,0xb5,0x02,0x00,0x00,0x00,0x00,0x00,0x80,
 0x9a,0x3f,0x00,0x00,0x00,0x00,0x00,0x00,0x00,0x00,0x00,0x00,0x00,0x00,0x00,
 0x00,0x00,0x00,0xa0,0x56,0x07,0x00,0xbc,0xb7,0x6a,0x55,0x01,0x00,0x00,0x00,
 0x00,0x00,0x00,0xad,0x0d,0x00,0x00,0x00,0x00,0x00,0x00,0x00,0x00,0x00,0x00,
 0x00,0x00,0x00,0x00,0x00,0x00,0xd0,0xfa,0x01,0x00,0xf4,0x6a,0x55,0xdb,0x00,
 0x00,0x00,0x00,0x00,0x00,0x80,0x15,0x17,0x00,0x00,0x00,0x00,0x00,0x00,0x00,
 0x00,0x00,0x00,0x00,0x00,0x00,0x00,0x00,0x00,0x68,0x55,0x01,0x00,0xbc,0xad,
 0xb6,0xaa,0x00,0x00,0x00,0x00,0x00,0x00,0x80,0xca,0x1d,0x00,0x00,0x00,0x00,
 0x00,0x00,0x00,0x00,0x00,0x00,0x00,0x00,0x00,0x00,0x00,0x00,0x54,0xfb,0x00,
 0x00,0xf6,0x6a,0x69,0x5b,0x00,0x00,0x00,0x00,0x00,0x00,0x00,0x4b,0x07,0x00,
 0x00,0x00,0x00,0x00,0x00,0x00,0x00,0x00,0x00,0x00,0x00,0x00,0x00,0x00,0x00,
 0xa8,0xb5,0x00,0x00,0x2f,0xad,0x58,0x55,0x00,0x00,0x00,0x00,0x00,0x00,0x00,
 0xc5,0x0f,0x00,0x00,0x00,0x00,0x00,0x00,0x00,0x00,0x00,0x00,0x00,0x00,0x00,
 0x00,0x00,0x00,0xb6,0x5e,0x00,0x00,0x7d,0x55,0xa0,0x2d,0x00,0x00,0x00,0x00,
 0x00,0x00,0x80,0x86,0x02,0x00,0x00,0x00,0x00,0x00,0x00,0x00,0x00,0x00,0x00,
 0x00,0x00,0x00,0x00,0x00,0x00,0x55,0x35,0x00,0x00,0x2f,0x2b,0x60,0x05,0x00,
 0x00,0x00,0x00,0x00,0x00,0x00,0xc3,0x07,0x00,0x00,0x00,0x00,0x00,0x00,0x00,
 0x00,0x00,0x00,0x00,0x00,0x00,0x00,0x00,0x00,0xda,0x3e,0x00,0x80,0xdd,0x16,
 0x40,0x03,0x00,0x00,0x00,0x00,0x00,0x00,0x80,0x82,0x02,0x00,0x00,0x00,0x00,
 0x00,0x00,0x00,0x00,0x00,0x00,0x00,0x00,0x00,0x00,0x00,0x80,0x56,0x0f,0x00,
 0xc0,0x97,0x1a,0x00,0x00,0x00,0x00,0x00,0x00,0x00,0x00,0x00,0x81,0x03,0x00,
 0x00,0x00,0x00,0x00,0x00,0x00,0x00,0x00,0x00,0x00,0x00,0x00,0x00,0x00,0x40,
 0xb5,0x0d,0x00,0x40,0x5d,0x15,0x00,0x00,0x00,0x00,0x00,0x00,0x00,0x00,0x80,
 0x01,0x01,0x00,0x00,0x00,0x00,0x00,0x00,0x00,0x00,0x00,0x00,0x00,0x00,0x00,
 0x00,0x00,0x40,0xab,0x0b,0x00,0xa0,0xaf,0x06,0x00,0x00,0x00,0x00,0x00,0x00,
 0x00,0x00,0x00,0x80,0x01,0x00,0x00,0x00,0x00,0x00,0x00,0x00,0x00,0x00,0x00,
 0x00,0x00,0x00,0x00,0x00,0xa0,0xd6,0x07,0x00,0xe0,0x6a,0x05,0x00,0x00,0x00,
 0x00,0x00,0x00,0x00,0x00,0x00,0x80,0x00,0x00,0x00,0x00,0x00,0x00,0x00,0x00,
 0x00,0x00,0x00,0x00,0x00,0x00,0x00,0x00,0x60,0x75,0x01,0x00,0xa0,0x57,0x03,
 0x00,0x00,0x00,0x00,0x00,0x00,0x00,0x00,0x00,0x00,0x00,0x00,0x00,0x00,0x00,
 0x00,0x00,0x00,0x00,0x00,0x00,0x00,0x00,0x00,0x00,0x00,0xd8,0xea,0x03,0x00,
 0xf0,0xa6,0x02,0x00,0x00,0x00,0x00,0x00,0x00,0x00,0x00,0x00,0x00,0x00,0x00,
 0x00,0x00,0x00,0x00,0x00,0x00,0x00,0x00,0x00,0x00,0x00,0x00,0x00,0x00,0x28,
 0x7b,0x01,0x00,0xa0,0xb5,0x01,0x00,0x00,0x00,0x00,0x00,0x00,0x00,0x00,0x00,
 0x00,0x00,0x00,0x00,0x00,0x00,0x00,0x00,0x00,0x00,0x00,0x00,0x00,0x00,0x00,
 0x00,0x00,0xe8,0xda,0x00,0x00,0xf8,0xab,0x02,0x00,0x00,0x00,0x00,0x00,0x00,
 0x00,0x00,0x00,0x00,0x00,0x00,0x00,0x00,0x00,0x00,0x00,0x00,0x00,0x00,0x00,
 0x00,0x00,0x00,0x00,0x00,0xac,0x76,0x00,0x00,0x68,0x55,0x01,0x00,0x00,0x00,
 0x00,0x00,0x00,0x00,0x00,0x00,0x00,0x00,0x00,0x00,0x00,0x00,0x00,0x00,0x00,
 0x00,0x00,0x00,0x00,0x00,0x00,0x00,0x00,0xab,0x5e,0x00,0x00,0xbc,0xb5,0x00,
 0x00,0x00,0x00,0x00,0x00,0x00,0x00,0x00,0x00,0x00,0x00,0x00,0x00,0x00,0x00,
 0x00,0x00,0x00,0x00,0x00,0x00,0x00,0x00,0x00,0x00,0x00,0xb5,0x35,0x00,0x00,
 0xe8,0xa8,0x01,0x00,0x00,0x00,0x00,0x00,0x00,0x00,0x00,0x00,0x00,0x00,0x00,
 0x00,0x00,0x00,0x00,0x00,0x00,0x00,0x00,0x00,0x00,0x00,0x00,0x00,0x00,0xad,
 0x1e,0x00,0x00,0xbc,0x56,0x00,0x00,0x00,0x00,0x00,0x00,0x00,0x00,0x00,0x00,
 0x00,0x00,0x00,0x00,0x00,0x00,0x00,0x00,0x00,0x00,0x00,0x00,0x00,0x00,0x00,
 0x00,0x80,0x55,0x0f,0x00,0x00,0x6e,0xd8,0x00,0x00,0x00,0x00,0x00,0x00,0x00,
 0x00,0x00,0x00,0x00,0x00,0x00,0x00,0x00,0x00,0x00,0x00,0x00,0x00,0x00,0x00,
 0x00,0x00,0x00,0x00,0x40,0xb5,0x05,0x00,0x00,0x3a,0x57,0x00,0x00,0x00,0x00,
 0x00,0x00,0x00,0x00,0x00,0x00,0x00,0x00,0x00,0x00,0x00,0x00,0x00,0x00,0x00,
 0x00,0x00,0x00,0x00,0x00,0x00,0x00,0xc0,0xda,0x07,0x00,0x00,0x3e,0x2a,0x00,
 0x00,0x00,0x00,0x00,0x00,0x00,0x00,0x00,0x00,0x00,0x00,0x00,0x00,0x00,0x00,
 0x00,0x00,0x00,0x00,0x00,0x00,0x00,0x00,0x00,0x00,0xb0,0xd5,0x06,0x00,0x00,
 0x94,0x1a,0x00,0x00,0x00,0x00,0x00,0x00,0x00,0x00,0x00,0x00,0x00,0x00,0x00,
 0x00,0x00,0x00,0x00,0x00,0x00,0x00,0x00,0x00,0x00,0x00,0x00,0x00,0x50,0xb6,
 0x03,0x00,0x00,0x1f,0x2d,0x00,0x00,0x00,0x00,0x00,0x00,0x00,0x00,0x00,0x00,
 0x00,0x00,0x00,0x00,0x00,0x00,0x00,0x00,0x00,0x00,0x00,0x00,0x00,0x00,0x00,
 0x00,0xd0,0xf5,0x00,0x00,0x00,0x85,0x15,0x00,0x00,0x00,0x00,0x00,0x00,0x00,
 0x00,0x00,0x00,0x00,0x00,0x00,0x00,0x00,0x00,0x00,0x00,0x00,0x00,0x00,0x00,
 0x00,0x00,0x00,0x00,0xac,0xba,0x01,0x00,0x00,0x8f,0x0a,0x00,0x00,0x00,0x00,
 0x00,0x00,0x00,0x00,0x00,0x00,0x00,0x00,0x00,0x00,0x00,0x00,0x00,0x00,0x00,
 0x00,0x00,0x00,0x00,0x00,0x00,0x00,0xb4,0xda,0x00,0x00,0x00,0x46,0x0b,0x00,
 0x00,0x00,0x00,0x00,0x00,0x00,0x00,0x00,0x00,0x00,0x00,0x00,0x00,0x00,0x00,
 0x00,0x00,0x00,0x00,0x00,0x00,0x00,0x00,0x00,0x00,0xd6,0x76,0x00,0x00,0x80,
 0x43,0x05,0x00,0x00,0x00,0x00,0x00,0x00,0x00,0x00,0x00,0x00,0x00,0x00,0x00,
 0x00,0x00,0x00,0x00,0x00,0x00,0x00,0x00,0x00,0x00,0x00,0x00,0x00,0xaa,0x1e,
 0x00,0x00,0x80,0x86,0x02,0x00,0x00,0x00,0x00,0x00,0x00,0x00,0x00,0x00,0x00,
 0x00,0x00,0x00,0x00,0x00,0x00,0x00,0x00,0x00,0x00,0x00,0x00,0x00,0x00,0x00,
 0x80,0xb5,0x36,0x00,0x00,0x80,0xc3,0x01,0x00,0x00,0x00,0x00,0x00,0x00,0x00,
 0x00,0x00,0x00,0x00,0x00,0x00,0x00,0x00,0x00,0x00,0x00,0x00,0x00,0x00,0x00,
 0x00,0x00,0x00,0x00,0xad,0x1f,0x00,0x00,0x00,0xa3,0x00,0x00,0x00,0x00,0x00,
 0x00,0x00,0x00,0x00,0x00,0x00,0x00,0x00,0x00,0x00,0x00,0x00,0x00,0x00,0x00,
 0x00,0x00,0x00,0x00,0x00,0x00,0xc0,0x6a,0x05,0x00,0x00,0xc0,0x42,0x01,0x00,
 0x00,0x00,0x00,0x00,0x00,0x00,0x00,0x00,0x00,0x00,0x00,0x00,0x00,0x00,0x00,
 0x00,0x00,0x00,0x00,0x00,0x00,0x00,0x00,0x00,0x40,0xab,0x0f,0x00,0x00,0xc0,
 0xa1,0x01,0x00,0x00,0x00,0x00,0x00,0x00,0x00,0x00,0x00,0x00,0x00,0x00,0x00,
 0x00,0x00,0x00,0x00,0x00,0x00,0x00,0x00,0x00,0x00,0x00,0x00,0xb0,0xda,0x03,
 0x00,0x00,0x40,0x61,0x00,0x00,0x00,0x00,0x00,0x00,0x00,0x00,0x00,0x00,0x00,
 0x00,0x00,0x00,0x00,0x00,0x00,0x00,0x00,0x00,0x00,0x00,0x00,0x00,0x00,0x00,
 0xa0,0x76,0x03,0x00,0x00,0xc0,0x50,0x00,0x00,0x00,0x00,0x00,0x00,0x00,0x00,
 0x00,0x00,0x00,0x00,0x00,0x00,0x00,0x00,0x00,0x00,0x00,0x00,0x00,0x00,0x00,
 0x00,0x00,0x00,0xa8,0xd5,0x02,0x00,0x00,0x00,0xa0,0x00,0x00,0x00,0x00,0x00,
 0x00,0x00,0x00,0x00,0x00,0x00,0x00,0x00,0x00,0x00,0x00,0x00,0x00,0x00,0x00,
 0x00,0x00,0x00,0x00,0x00,0x00,0x58,0xf5,0x01,0x00,0x00,0x00,0x50,0x00,0x00,
 0x00,0x00,0x00,0x00,0x00,0x00,0x00,0x00,0x00,0x00,0x00,0x00,0x00,0x00,0x00,
 0x00,0x00,0x00,0x00,0x00,0x00,0x00,0x00,0x00,0x68,0x7b,0x00,0x00,0x00,0x00,
 0x50,0x00,0x00,0x00,0x00,0x00,0x00,0x00,0x00,0x00,0x00,0x00,0x00,0x00,0x00,
 0x00,0x00,0x00,0x00,0x00,0x00,0x00,0x00,0x00,0x00,0x00,0x00,0x56,0xad,0x00,
 0x00,0x00,0x00,0x20,0x00,0x00,0x00,0x00,0x00,0x00,0x00,0x00,0x00,0x00,0x00,
 0x00,0x00,0x00,0x00,0x00,0x00,0x00,0x00,0x00,0x00,0x00,0x00,0x00,0x00,0x00,
 0x5a,0x7b,0x00,0x00,0x00,0x00,0x30,0x00,0x00,0x00,0x00,0x00,0x00,0x00,0x00,
 0x00,0x00,0x00,0x00,0x00,0x00,0x00,0x00,0x00,0x00,0x00,0x00,0x00,0x00,0x00,
 0x00,0x00,0x00,0xb5,0x2e,0x00,0x00,0x00,0x00,0x00,0x00,0x00,0x00,0x00,0x00,
 0x00,0x00,0x00,0x00,0x00,0x00,0x00,0x00,0x00,0x00,0x00,0x00,0x00,0x00,0x00,
 0x00,0x00,0x00,0x00,0x00,0x80,0x56,0x1b,0x00,0x00,0x00,0x00,0x00,0x00,0x00,
 0x00,0x00,0x00,0x00,0x00,0x00,0x00,0x00,0x00,0x00,0x00,0x00,0x00,0x00,0x00,
 0x00,0x00,0x00,0x00,0x00,0x00,0x00,0x00,0x40,0xb5,0x0f,0x00,0x00,0x00,0x00,
 0x00,0x00,0x00,0x00,0x00,0x00,0x00,0x00,0x00,0x00,0x00,0x00,0x00,0x00,0x00,
 0x00,0x00,0x00,0x00,0x00,0x00,0x00,0x00,0x00,0x00,0x00,0xa0,0xd6,0x0a,0x00,
 0x00,0x00,0x00,0x00,0x00,0x00,0x00,0x00,0x00,0x00,0x00,0x00,0x00,0x00,0x00,
 0x00,0x00,0x00,0x00,0x00,0x00,0x00,0x00,0x00,0x00,0x00,0x00,0x00,0x00,0xc0,
 0xaa,0x07,0x00,0x00,0x00,0x00,0x00,0x00,0x00,0x00,0x00,0x00,0x00,0x00,0x00,
 0x00,0x00,0x00,0x00,0x00,0x00,0x00,0x00,0x00,0x00,0x00,0x00,0x00,0x00,0x00,
 0x00,0x00,0xb0,0xda,0x05,0x00,0x00,0x00,0x00,0x00,0x00,0x00,0x00,0x00,0x00,
 0x00,0x00,0x00,0x00,0x00,0x00,0x00,0x00,0x00,0x00,0x00,0x00,0x00,0x00,0x00,
 0x00,0x00,0x00,0x00,0x00,0x50,0x6b,0x03,0x00,0x00,0x00,0x00,0x00,0x00,0x00,
 0x00,0x00,0x00,0x00,0x00,0x00,0x00,0x00,0x00,0x00,0x00,0x00,0x00,0x00,0x00,
 0x00,0x00,0x00,0x00,0x00,0x00,0x00,0x00,0xa8,0xf5,0x01,0x00,0x00,0x00,0x00,
 0x00,0x00,0x00,0x00,0x00,0x00,0x00,0x00,0x00,0x00,0x00,0x00,0x00,0x00,0x00,
 0x00,0x00,0x00,0x00,0x00,0x00,0x00,0x00,0x00,0x00,0x00,0xb4,0xb6,0x01,0x00,
 0x00,0x00,0x00,0x00,0x00,0x00,0x00,0x00,0x00,0x00,0x00,0x00,0x00,0x00,0x00,
 0x00,0x00,0x00,0x00,0x00,0x00,0x00,0x00,0x00,0x00,0x00,0x00,0x00,0x00,0xaa,
 0x7a,0x00,0x00,0x00,0x00,0x00,0x00,0x00,0x00,0x00,0x00,0x00,0x00,0x00,0x00,
 0x00,0x00,0x00,0x00,0x00,0x00,0x00,0x00,0x00,0x00,0x00,0x00,0x00,0x00,0x00,
 0x00,0x00,0xd4,0x6e,0x00,0x00,0x00,0x00,0x00,0x00,0x00,0x00,0x00,0x00,0x00,
 0x00,0x00,0x00,0x00,0x00,0x00,0x00,0x00,0x00,0x00,0x00,0x00,0x00,0x00,0x00,
 0x00,0x00,0x00,0x00,0x00,0xbb,0x5a,0x00,0x00,0x00,0x00,0x00,0x00,0x00,0x00,
 0x00,0x00,0x00,0x00,0x00,0x00,0x00,0x00,0x00,0x00,0x00,0x00,0x00,0x00,0x00,
 0x00,0x00,0x00,0x00,0x00,0x00,0x00,0x00,0x55,0x3f,0x00,0x00,0x00,0x00,0x00,
 0x00,0x00,0x00,0x00,0x00,0x00,0x00,0x00,0x00,0x00,0x00,0x00,0x00,0x00,0x00,
 0x00,0x00,0x00,0x00,0x00,0x00,0x00,0x00,0x00,0x00,0xc0,0xaa,0x0b,0x00,0x00,
 0x00,0x00,0x00,0x00,0x00,0x00,0x00,0x00,0x00,0x00,0x00,0x00,0x00,0x00,0x00,
 0x00,0x00,0x00,0x00,0x00,0x00,0x00,0x00,0x00,0x00,0x00,0x00,0x00,0x80,0xb6,
 0x0e,0x00,0x00,0x00,0x00,0x00,0x00,0x00,0x00,0x00,0x00,0x00,0x00,0x00,0x00,
 0x00,0x00,0x00,0x00,0x00,0x00,0x00,0x00,0x00,0x00,0x00,0x00,0x00,0x00,0x00,
 0x00,0x40,0xab,0x0b,0x00,0x00,0x00,0x00,0x00,0x00,0x00,0x00,0x00,0x00,0x00,
 0x00,0x00,0x00,0x00,0x00,0x00,0x00,0x00,0x00,0x00,0x00,0x00,0x00,0x00,0x00,
 0x00,0x00,0x00,0x00,0xb0,0xda,0x07,0x00,0x00,0x00,0x00,0x00,0x00,0x00,0x00,
 0x00,0x00,0x00,0x00,0x00,0x00,0x00,0x00,0x00,0x00,0x00,0x00,0x00,0x00,0x00,
 0x00,0x00,0x00,0x00,0x00,0x00,0x00,0x50,0x6b,0x01,0x00,0x00,0x00,0x00,0x00,
 0x00,0x00,0x00,0x00,0x00,0x00,0x00,0x00,0x00,0x00,0x00,0x00,0x00,0x00,0x00,
 0x00,0x00,0x00,0x00,0x00,0x00,0x00,0x00,0x00,0x00,0xd0,0xea,0x03,0x00,0x00,
 0x00,0x00,0x00,0x00,0x00,0x00,0x00,0x00,0x00,0x00,0x00,0x00,0x00,0x00,0x00,
 0x00,0x00,0x00,0x00,0x00,0x00,0x00,0x00,0x00,0x00,0x00,0x00,0x00,0xa8,0x7a,
 0x01,0x00,0x00,0x00,0x00,0x00,0x00,0x00,0x00,0x00,0x00,0x00,0x00,0x00,0x00,
 0x00,0x00,0x00,0x00,0x00,0x00,0x00,0x00,0x00,0x00,0x00,0x00,0x00,0x00,0x00,
 0x00,0xb4,0xed,0x00,0x00,0x00,0x00,0x00,0x00,0x00,0x00,0x00,0x00,0x00,0x00,
 0x00,0x00,0x00,0x00,0x00,0x00,0x00,0x00,0x00,0x00,0x00,0x00,0x00,0x00,0x00,
 0x00,0x00,0x00,0x00,0xa8,0x7a,0x00,0x00,0x00,0x00,0x00,0x00,0x00,0x00,0x00,
 0x00,0x00,0x00,0x00,0x00,0x00,0x00,0x00,0x00,0x00,0x00,0x00,0x00,0x00,0x00,
 0x00,0x00,0x00,0x00,0x00,0x00,0x00,0xb4,0x6d,0x00,0x00,0x00,0x00,0x00,0x00,
 0x00,0x00,0x00,0x00,0x00,0x00,0x00,0x00,0x00,0x00,0x00,0x00,0x00,0x00,0x00,
 0x00,0x00,0x00,0x00,0x00,0x00,0x00,0x00,0x00,0x00,0xac,0x1e,0x00,0x00,0x00,
 0x00,0x00,0x00,0x00,0x00,0x00,0x00,0x00,0x00,0x00,0x00,0x00,0x00,0x00,0x00,
 0x00,0x00,0x00,0x00,0x00,0x00,0x00,0x00,0x00,0x00,0x00,0x00,0x00,0x6a,0x3b,
 0x00,0x00,0x00,0x00,0x00,0x00,0x00,0x00,0x00,0x00,0x00,0x00,0x00,0x00,0x00,
 0x00,0x00,0x00,0x00,0x00,0x00,0x00,0x00,0x00,0x00,0x00,0x00,0x00,0x00,0x00,
 0x00,0xad,0x16,0x00,0x00,0x00,0x00,0x00,0x00,0x00,0x00,0x00,0x00,0x00,0x00,
 0x00,0x00,0x00,0x00,0x00,0x00,0x00,0x00,0x00,0x00,0x00,0x00,0x00,0x00,0x00,
 0x00,0x00,0x00,0x00,0xea,0x0f,0x00,0x00,0x00,0x00,0x00,0x00,0x00,0x00,0x00,
 0x00,0x00,0x00,0x00,0x00,0x00,0x00,0x00,0x00,0x00,0x00,0x00,0x00,0x00,0x00,
 0x00,0x00,0x00,0x00,0x00,0x00,0x00,0xad,0x02,0x00,0x00,0x00,0x00,0x00,0x00,
 0x00,0x00,0x00,0x00,0x00,0x00,0x00,0x00,0x00,0x00,0x00,0x00,0x00,0x00,0x00,
 0x00,0x00,0x00,0x00,0x00,0x00,0x00,0x00,0x00,0x80,0xea,0x07,0x00,0x00,0x00,
 0x00,0x00,0x00,0x00,0x00,0x00,0x00,0x00,0x00,0x00,0x00,0x00,0x00,0x00,0x00,
 0x00,0x00,0x00,0x00,0x00,0x00,0x00,0x00,0x00,0x00,0x00,0x00,0x80,0xb6,0x02,
 0x00,0x00,0x00,0x00,0x00,0x00,0x00,0x00,0x00,0x00,0x00,0x00,0x00,0x00,0x00,
 0x00,0x00,0x00,0x00,0x00,0x00,0x00,0x00,0x00,0x00,0x00,0x00,0x00,0x00,0x00,
 0x00,0xf5,0x01,0x00,0x00,0x00,0x00,0x00,0x00,0x00,0x00,0x00,0x00,0x00,0x00,
 0x00,0x00,0x00,0x00,0x00,0x00,0x00,0x00,0x00,0x00,0x00,0x00,0x00,0x00,0x00,
 0x00,0x00,0x00,0xc0,0xb6,0x00,0x00,0x00,0x00,0x00,0x00,0x00,0x00,0x00,0x00,
 0x00,0x00,0x00,0x00,0x00,0x00,0x00,0x00,0x00,0x00,0x00,0x00,0x00,0x00,0x00,
 0x00,0x00,0x00,0x00,0x00,0x00,0x80,0xda,0x00,0x00,0x00,0x00,0x00,0x00,0x00,
 0x00,0x00,0x00,0x00,0x00,0x00,0x00,0x00,0x00,0x00,0x00,0x00,0x00,0x00,0x00,
 0x00,0x00,0x00,0x00,0x00,0x00,0x00,0x00,0x00,0x40,0x7d,0x00,0x00,0x00,0x00,
 0x00,0x00,0x00,0x00,0x00,0x00,0x00,0x00,0x00,0x00,0x00,0x00,0x00,0x00,0x00,
 0x00,0x00,0x00,0x00,0x00,0x00,0x00,0x00,0x00,0x00,0x00,0x00,0x60,0x37,0x00,
 0x00,0x00,0x00,0x00,0x00,0x00,0x00,0x00,0x00,0x00,0x00,0x00,0x00,0x00,0x00,
 0x00,0x00,0x00,0x00,0x00,0x00,0x00,0x00,0x00,0x00,0x00,0x00,0x00,0x00,0x00,
 0xa0,0x3a,0x00,0x00,0x00,0x00,0x00,0x00,0x00,0x00,0x00,0x00,0x00,0x00,0x00,
 0x00,0x00,0x00,0x00,0x00,0x00,0x00,0x00,0x00,0x00,0x00,0x00,0x00,0x00,0x00,
 0x00,0x00,0x00,0xa0,0x0f,0x00,0x00,0x00,0x00,0x00,0x00,0x00,0x00,0x00,0x00,
 0x00,0x00,0x00,0x00,0x00,0x00,0x00,0x00,0x00,0x00,0x00,0x00,0x00,0x00,0x00,
 0x00,0x00,0x00,0x00,0x00,0x00,0x60,0x1b,0x00,0x00,0x00,0x00,0x00,0x00,0x00,
 0x00,0x00,0x00,0x00,0x00,0x00,0x00,0x00,0x00,0x00,0x00,0x00,0x00,0x00,0x00,
 0x00,0x00,0x00,0x00,0x00,0x00,0x00,0x00,0x00,0xd0,0x0d,0x00,0x00,0x00,0x00,
 0x00,0x00,0x00,0x00,0x00,0x00,0x00,0x00,0x00,0x00,0x00,0x00,0x00,0x00,0x00,
 0x00,0x00,0x00,0x00,0x00,0x00,0x00,0x00,0x00,0x00,0x00,0x00,0x68,0x07,0x00,
 0x00,0x00,0x00,0x00,0x00,0x00,0x00,0x00,0x00,0x00,0x00,0x00,0x00,0x00,0x00,
 0x00,0x00,0x00,0x00,0x00,0x00,0x00,0x00,0x00,0x00,0x00,0x00,0x00,0x00,0x00,
 0xa8,0x01,0x00,0x00,0x00,0x00,0x00,0x00,0x00,0x00,0x00,0x00,0x00,0x00,0x00,
 0x00,0x00,0x00,0x00,0x00,0x00,0x00,0x00,0x00,0x00,0x00,0x00,0x00,0x00,0x00,
 0x00,0x00,0x00,0xe8,0x03,0x00,0x00,0x00,0x00,0x00,0x00,0x00,0x00,0x00,0x00,
 0x00,0x00,0x00,0x00,0x00,0x00,0x00,0x00,0x00,0x00,0x00,0x00,0x00,0x00,0x00,
 0x00,0x00,0x00,0x00,0x00,0x00,0x64,0x01,0x00,0x00,0x00,0x00,0x00,0x00,0x00,
 0x00,0x00,0x00,0x00,0x00,0x00,0x00,0x00,0x00,0x00,0x00,0x00,0x00,0x00,0x00,
 0x00,0x00,0x00,0x00,0x00,0x00,0x00,0x00,0x00,0xd8,0x00,0x00,0x00,0x00,0x00,
 0x00,0x00,0x00,0x00,0x00,0x00,0x00,0x00,0x00,0x00,0x00,0x00,0x00,0x00,0x00,
 0x00,0x00,0x00,0x00,0x00,0x00,0x00,0x00,0x00,0x00,0x00,0x00,0x76,0x00,0x00,
 0x00,0x00,0x00,0x00,0x00,0x00,0x00,0x00,0x00,0x00,0x00,0x00,0x00,0x00,0x00,
 0x00,0x00,0x00,0x00,0x00,0x00,0x00,0x00,0x00,0x00,0x00,0x00,0x00,0x00,0x00,
 0x68,0x00,0x00,0x00,0x00,0x00,0x00,0x00,0x00,0x00,0x00,0x00,0x00,0x00,0x00,
 0x00,0x00,0x00,0x00,0x00,0x00,0x00,0x00,0x00,0x00,0x00,0x00,0x00,0x00,0x00,
 0x00,0x00,0x00,0x38,0x00,0x00,0x00,0x00,0x00,0x00,0x00,0x00,0x00,0x00,0x00,
 0x00,0x00,0x00,0x00,0x00,0x00,0x00,0x00,0x00,0x00,0x00,0x00,0x00,0x00,0x00,
 0x00,0x00,0x00,0x00,0x00,0x00,0x19,0x00,0x00,0x00,0x00,0x00,0x00,0x00,0x00,
 0x00,0x00,0x00,0x00,0x00,0x00,0x00,0x00,0x00,0x00,0x00,0x00,0x00,0x00,0x00,
 0x00,0x00,0x00,0x00,0x00,0x00,0x00,0x00,0x00,0x14,0x00,0x00,0x00,0x00,0x00,
 0x00,0x00,0x00,0x00,0x00,0x00,0x00,0x00,0x00,0x00,0x00,0x00,0x00,0x00,0x00,
 0x00,0x00,0x00,0x00,0x00,0x00,0x00,0x00,0x00,0x00,0x00,0x00,0x0c,0x00,0x00,
 0x00,0x00,0x00,0x00,0x00,0x00,0x00,0x00,0x00,0x00,0x00,0x00,0x00,0x00,0x00,
 0x00,0x00,0x00,0x00,0x00,0x00,0x00,0x00,0x00,0x00,0x00,0x00,0x00,0x00,0x00,
 0x08,0x00,0x00,0x00,0x00,0x00,0x00,0x00,0x00,0x00,0x00,0x00,0x00,0x00,0x00,
 0x00,0x00,0x00,0x00,0x00,0x00,0x00,0x00,0x00,0x00,0x00,0x00,0x00,0x00,0x00,
 0x00,0x00,0x00,0x06,0x00,0x00,0x00,0x00,0x00,0x00,0x00,0x00,0x00,0x00,0x00,
 0x00,0x00,0x00,0x00,0x00,0x00,0x00,0x00,0x00,0x00,0x00,0x00,0x00,0x00,0x00,
 0x00,0x00,0x00,0x00,0x00,0x00,0x02,0x00,0x00,0x00,0x00,0x00,0x00,0x00,0x00,
 0x00,0x00,0x00,0x00,0x00,0x00,0x00,0x00,0x00,0x00,0x00,0x00,0x00,0x00,0x00,
 0x00,0x00,0x00,0x00,0x00,0x00,0x00,0x00,0x00,0x00,0x00,0x00,0x00,0x00,0x00,
 0x00,0x00,0x00,0x00,0x00,0x00,0x00,0x00,0x00,0x00,0x00,0x00,0x00,0x00,0x00,
 0x00,0x00,0x00,0x00,0x00,0x00,0x00,0x00,0x00,0x00,0x00,0x00,0x01,0x00,0x00,
 0x00,0x00,0x00,0x00,0x00,0x00,0x00,0x00,0x00,0x00,0x00,0x00,0x00,0x00,0x00,
 0x00,0x00,0x00,0x00,0x00,0x00,0x00,0x00,0x00,0x00,0x00,0x00,0x00,0x00,0x00,
 0x00,0x00,0x00,0x00,0x00,0x00,0x00,0x00,0x00,0x00,0x00,0x00,0x00,0x00,0x00,
 0x00,0x00,0x00,0x00,0x00,0x00,0x00,0x00,0x00,0x00,0x00,0x00,0x00,0x00,0x00,
 0x00,0x00,0x00,0x00,0x00,0x00,0x00,0x00,0x00,0x00,0x00,0x00,0x00,0x00,0x00,
 0x00,0x00,0x00,0x00,0x00,0x00,0x00,0x00,0x00,0x00,0x00,0x00,0x00,0x00,0x00,
 0x00,0x00,0x00,0x00,0x00,0x00,0x00,0x00,0x00,0x00,0x00,0x00,0x00,0x00,0x00,
 0x00,0x00,0x00,0x00,0x00,0x00,0x00,0x00,0x00,0x00,0x00,0x00,0x00,0x00,0x00,
 0x00,0x00,0x00,0x00,0x00,0x00,0x00,0x00,0x00,0x00,0x00,0x00,0x00,0x00,0x00,
 0x00,0x00,0x00,0x00,0x00,0x00,0x00,0x00,0x00,0x00,0x00,0x00,0x00,0x00,0x00,
 0x00,0x00,0x00,0x00,0x00,0x00};
